<svg viewBox="0 0 24 24" version="1.1" xmlns="http://www.w3.org/2000/svg" xmlns:xlink="http://www.w3.org/1999/xlink">
	<g id="brand" stroke="none" fill="none" fill-rule="evenodd">
		<g id="github" fill="currentColor">
			<path transform="matrix(1.2,0,0,1.2,0.9,-0.5)" d="M 9.3 0.4 C 3.8 0.4 -0.7 4.9 -0.7 10.4 C -0.7 14.8 2.2 18.6 6.1 19.9 C 6.6 20 6.8 19.7 6.8 19.4 C 6.8 19.2 6.8 18.4 6.8 17.5 C 4.3 18 3.6 16.9 3.5 16.4 C 3.3 16.1 2.8 15.2 2.4 15 C 2.1 14.8 1.6 14.3 2.4 14.3 C 3.2 14.3 3.8 15 4 15.3 C 4.8 16.8 6.3 16.4 6.9 16.2 C 7 15.5 7.2 15.1 7.5 14.8 C 5.3 14.6 3 13.7 3 9.9 C 3 8.8 3.3 7.9 4 7.2 C 3.9 6.9 3.5 5.9 4.1 4.5 C 4.1 4.5 4.9 4.3 6.8 5.6 C 7.6 5.3 8.5 5.2 9.3 5.2 C 10.2 5.2 11 5.3 11.8 5.6 C 13.7 4.3 14.6 4.5 14.6 4.5 C 15.1 5.9 14.8 6.9 14.7 7.2 C 15.3 7.9 15.7 8.8 15.7 9.9 C 15.7 13.7 13.4 14.6 11.1 14.8 C 11.5 15.1 11.8 15.7 11.8 16.7 C 11.8 18 11.8 19.1 11.8 19.4 C 11.8 19.7 12 20 12.5 19.9 C 16.4 18.6 19.3 14.8 19.3 10.4 C 19.3 4.9 14.8 0.4 9.3 0.4 L 9.3 0.4 Z" id="Shape">
			</path>
		</g>
	</g>
</svg>
